# xmcd
#
# Track frame offsets: 
#        150
#        20818
#        31320
#        42121
#        52920
#        63376
#        77619
#        88969
#        101976
#        112757
#        125673
#        142037
#        152679
#        160979
#        176738
#        188079
#        200687
#        208478
#        219096
#        224830
#
# Disc length: 3177 seconds
#
# Revision: 0
# Processed by: cddbd v1.5.2PL0 Copyright (c) Steve Scherf et al.
# Submitted via: ExactAudioCopy v0.95b1
#
DISCID=2e0c6714
DTITLE=Country Blend - Joan MacKay
DYEAR=2007
DGENRE=Country
TTITLE0=When It's Springtime in the Rockies
TTITLE1=April Showers
TTITLE2=Let's All Sing Like the Birdies Sing
TTITLE3=Country Gardens
TTITLE4=Take Me Out to the Ballgame
TTITLE5=Stranger on the Shore
TTITLE6=Music Box Dancer
TTITLE7=Yellow Bird
TTITLE8=Happy Wanderer
TTITLE9=Oklahoma Hills Where I Was Born
TTITLE10=Robin's Return
TTITLE11=Last Date
TTITLE12=Little People
TTITLE13=The Entertainer
TTITLE14=It is No Secret
TTITLE15=Whispering Hope
TTITLE16=Let There Be Peace on Earth
TTITLE17=When the Red Red Robin Comes Bobbin' Along
TTITLE18=There's a Bluebird on My Windowsill
TTITLE19=Santa Lucia
EXTD=
EXTT0=
EXTT1=
EXTT2=
EXTT3=
EXTT4=
EXTT5=
EXTT6=
EXTT7=
EXTT8=
EXTT9=
EXTT10=
EXTT11=
EXTT12=
EXTT13=
EXTT14=
EXTT15=
EXTT16=
EXTT17=
EXTT18=
EXTT19=
PLAYORDER=
